<?xml version="1.0" standalone="no"?>
<!DOCTYPE svg PUBLIC "-//W3C//DTD SVG 20010904//EN"
 "http://www.w3.org/TR/2001/REC-SVG-20010904/DTD/svg10.dtd">
<svg version="1.0" xmlns="http://www.w3.org/2000/svg"
 width="891.000000pt" height="891.000000pt" viewBox="0 0 891.000000 891.000000"
 preserveAspectRatio="xMidYMid meet">
<metadata>
Created by potrace 1.11, written by Peter Selinger 2001-2013
</metadata>
<g transform="translate(0.000000,891.000000) scale(0.100000,-0.100000)"
fill="#000000" stroke="none">
<path d="M4210 8709 c-858 -53 -1675 -370 -2360 -915 -175 -139 -505 -470
-643 -644 -828 -1043 -1117 -2362 -797 -3643 144 -575 413 -1113 797 -1597
138 -174 468 -505 643 -644 149 -118 391 -283 544 -371 1038 -593 2280 -714
3409 -334 461 155 891 391 1287 706 172 136 504 468 642 641 697 875 1014
1947 902 3052 -81 798 -390 1550 -902 2192 -138 173 -470 505 -642 641 -831
660 -1840 981 -2880 916z"/>
</g>
</svg>
